<svg xmlns="http://www.w3.org/2000/svg" width="147" height="34" fill="none" viewBox="0 0 147 34"><path fill="url(#paint0_linear_1_1123)" d="M23.2449 19.667C23.4631 20.629 23.474 21.6337 23.4631 21.8047C23.4348 23.0638 23.4762 22.8821 23.3169 24.1262C23.1489 25.4366 22.3721 26.4499 21.2242 27.1639C19.2079 28.4315 17.1632 29.6628 15.16 30.9497C14.3133 31.4927 13.5692 31.5183 12.6942 30.9839C10.0123 29.3443 7.28458 27.7774 4.59616 26.1485C3.58008 25.5604 2.61326 24.8942 1.70479 24.1562C0.45223 23.1023 0.00488596 21.6444 0.00488596 20.0475C0.00488596 17.089 -0.0213 14.1283 0.0485292 11.1719C0.088322 10.0189 0.247713 8.87292 0.524241 7.75156C0.781736 6.65921 1.61532 5.93453 2.5973 5.40011C5.03477 4.06192 7.45916 2.6938 9.91409 1.39195C10.7666 0.948035 11.6548 0.573395 12.5698 0.271803C14.5141 -0.384466 16.2795 0.2376 17.9488 1.18032C18.3438 1.39409 18.2303 1.60786 17.8855 1.82163C14.7316 3.63011 11.582 5.44571 8.43677 7.26845C7.4177 7.86059 6.4139 8.47838 5.44502 9.14533C5.30349 9.25093 5.18541 9.38368 5.09799 9.53547C5.01057 9.68727 4.95565 9.85492 4.93658 10.0282C4.90166 13.2775 4.91039 16.5268 4.9213 19.7782C4.91237 20.0839 4.99079 20.386 5.14771 20.6503C5.30463 20.9147 5.53382 21.1309 5.80944 21.2746C7.48971 22.2508 9.1627 23.2412 10.8284 24.2459C11.7537 24.8039 12.6396 25.4281 13.5823 25.9561C13.7387 26.0297 13.9094 26.0696 14.0829 26.0733C14.2564 26.077 14.4287 26.0443 14.5883 25.9775C15.7383 25.3682 16.8315 24.6585 17.9728 24.0322C18.6174 23.6758 19.2894 23.3692 19.9826 23.1151C20.6236 22.8863 21.2091 22.5297 21.7023 22.0679C22.1954 21.6062 22.5855 21.0492 22.8478 20.4323C22.9416 20.2164 23.042 20.0668 23.2449 19.667Z"/><path fill="url(#paint1_linear_1_1123)" d="M35.8498 7.58984C35.9748 8.13059 36.0616 8.67914 36.1095 9.23159C36.1793 13.2782 36.271 17.3249 36.2513 21.3715C36.2725 22.2872 36.049 23.1924 35.6031 23.9974C35.1572 24.8024 34.5043 25.4794 33.7091 25.9611C30.4817 28.0304 27.3045 30.1788 24.0443 32.1946C23.2231 32.729 22.2737 33.044 21.2901 33.1085C20.3065 33.173 19.3227 32.9847 18.4361 32.5623C17.8513 32.3015 17.2818 32.0043 16.7188 31.7072C16.5512 31.5968 16.3955 31.47 16.254 31.3288C17.1945 30.8757 18.1045 30.5272 18.9206 30.0313C21.609 28.3895 24.2647 26.72 26.9139 25.0098C28.2232 24.1783 29.4779 23.2847 30.761 22.4254C31.0985 22.2224 31.375 21.9354 31.5624 21.5937C31.7498 21.252 31.8415 20.8678 31.8281 20.4801C31.8434 17.3527 31.9197 14.2274 31.9503 11.0999C31.9503 10.5227 32.1139 10.2235 32.7228 9.98191C33.9491 9.50307 35.2213 8.98789 35.8498 7.58984Z"/><path fill="url(#paint2_linear_1_1123)" d="M10.711 12.8735C10.711 14.0848 10.711 15.2962 10.711 16.5075C10.711 17.0355 10.9292 17.2643 11.4399 16.9458C12.5091 16.2916 13.5937 15.6632 14.6149 14.9385C14.9214 14.6794 15.1131 14.3138 15.1495 13.9188C15.2085 12.9741 15.2085 12.0268 15.1495 11.0821C15.1144 10.7817 15.1729 10.478 15.3174 10.2109C15.462 9.9438 15.6857 9.72583 15.9591 9.58571C16.7251 9.14321 17.4866 8.70285 18.246 8.23897C19.8979 7.22357 21.5193 6.17183 23.1974 5.19063C23.3678 5.10615 23.554 5.05669 23.7446 5.04529C23.9353 5.0339 24.1263 5.0608 24.3059 5.12436C25.5345 5.62886 26.7456 6.19962 27.9348 6.80458C28.8732 7.28342 29.7613 7.85846 30.6975 8.34585C30.8191 8.40997 30.9534 8.44756 31.0913 8.45605C31.2292 8.46453 31.3673 8.44372 31.4961 8.39502C32.3494 7.87556 33.1589 7.28556 33.986 6.72121C34.5839 6.31292 34.4748 5.9431 33.9031 5.63313C32.5632 4.91273 31.2168 4.20302 29.8704 3.49545C29.2878 3.18548 28.6964 2.89476 28.1247 2.57838C27.4548 2.21497 26.8154 1.81309 26.1302 1.46251C24.0113 0.363737 21.9841 0.607433 20.0376 1.89004C19.1385 2.48005 18.222 3.04439 17.3033 3.60019C15.6754 4.59422 14.0454 5.55831 12.4415 6.55661C11.2762 7.26846 10.7241 8.3373 10.7176 9.67122C10.7176 10.7401 10.7176 11.8089 10.7176 12.8777L10.711 12.8735Z"/><path fill="url(#paint3_linear_1_1123)" d="M30.4694 10.6875C30.2907 10.6875 29.4824 11.023 28.8699 11.2821C25.3116 12.7872 23.2052 14.6632 21.1944 17.2929C20.2575 18.4599 19.3618 20.1846 19.017 21.61C18.9484 21.9148 18.9661 22.1724 19.4943 22.2261C20.0226 22.2798 20.4084 21.8762 20.4084 21.8762C20.4084 21.8762 20.722 21.629 21.8447 20.2404C23.804 17.8168 26.2881 14.5516 28.6345 12.3898C29.3344 11.745 29.8707 11.3315 30.4877 10.7991C30.4877 10.7991 30.6481 10.6875 30.4694 10.6875Z"/><path fill="url(#paint4_linear_1_1123)" d="M12.5526 18.4584C12.5526 18.4584 15.7277 20.4529 17.5716 21.6008C18.0604 21.9044 18.5754 21.3379 18.7194 20.9681C19.0424 20.1365 19.3392 19.2921 19.6578 18.4584C19.8127 18.0523 19.6992 17.7744 19.3239 17.5435C18.3354 16.9236 17.3381 16.3015 16.3714 15.641C16.2239 15.5148 16.0348 15.4453 15.839 15.4453C15.6432 15.4453 15.454 15.5148 15.3065 15.641C14.5755 16.1305 13.8248 16.5901 13.0698 17.0433C12.7665 17.225 12.0922 17.6461 11.6798 17.8492C11.7758 17.9219 12.5526 18.4584 12.5526 18.4584Z"/><path fill="#005A61" d="M47.4109 20.6239C46.3926 20.6239 45.5597 20.4372 44.9123 20.0638C44.2672 19.6951 43.7629 19.1298 43.4765 18.4541C43.1492 17.6565 42.9917 16.8017 43.0138 15.9423V10.3438H45.1087V16.0428C45.1075 16.4849 45.1812 16.9241 45.3269 17.3425C45.4595 17.7366 45.7115 18.0819 46.0492 18.3323C46.455 18.6067 46.9427 18.7406 47.4349 18.7128C47.9248 18.7439 48.4108 18.6096 48.8119 18.3323C49.1366 18.0767 49.3722 17.7286 49.4861 17.3361C49.6128 16.9199 49.6768 16.4878 49.676 16.0535V10.3438H51.773V15.9423C51.7906 16.7995 51.6326 17.6514 51.3082 18.4477C51.029 19.1248 50.5297 19.6928 49.8877 20.0638C49.1279 20.4637 48.2727 20.6571 47.4109 20.6239Z"/><path fill="#005A61" d="M53.8868 20.5084V10.3438H56.0275L60.8283 17.2207V10.3438H62.9253V20.5084H60.8435L55.9839 13.7021V20.5084H53.8868Z"/><path fill="#005A61" d="M65.1134 20.5084V10.3438H67.2148V20.5084H65.1134Z"/><path fill="#005A61" d="M69.4102 20.5084V10.3438H76.7969V12.2527H71.5051V14.8799H75.9742V16.776H71.5051V20.5084H69.4102Z"/><path fill="#005A61" d="M81.1033 20.5084V16.7183L77.254 10.3438H79.6718L82.1639 14.8094L84.6952 10.3438H87.0737L83.2004 16.7034V20.5084H81.1033Z"/><path fill="#005A61" d="M92.6222 20.624C91.6882 20.6571 90.7643 20.4247 89.9621 19.9549C89.2571 19.5145 88.7059 18.8739 88.3823 18.1186C88.0215 17.2706 87.8439 16.3586 87.8607 15.4401C87.8425 14.5263 88.0202 13.6189 88.3823 12.7766C88.7145 12.0192 89.268 11.3751 89.9731 10.9253C90.6801 10.4693 91.5711 10.242 92.6462 10.2434C93.3183 10.2287 93.9865 10.348 94.6102 10.594C95.1305 10.8062 95.5904 11.1393 95.95 11.5645C96.3047 11.9849 96.553 12.4815 96.6745 13.0138H95.3848C95.2356 12.5132 94.8968 12.0873 94.4378 11.8231C93.8852 11.5077 93.2525 11.3528 92.6135 11.3764C91.9053 11.3436 91.2063 11.5437 90.6277 11.945C90.1241 12.3253 89.7406 12.8374 89.5214 13.4221C89.2819 14.0519 89.1607 14.7189 89.1635 15.3909C89.1552 16.0913 89.2795 16.7871 89.5301 17.4431C89.7533 18.0691 90.1786 18.6068 90.7417 18.9747C91.3047 19.3427 91.9749 19.521 92.6506 19.4825C93.0955 19.4893 93.5384 19.4213 93.9599 19.2815C94.3215 19.1639 94.6522 18.9697 94.9288 18.7129C95.1791 18.4777 95.3632 18.1832 95.4634 17.8578H96.8556C96.7172 18.3982 96.4485 18.8981 96.0722 19.3157C95.6794 19.7433 95.1899 20.0749 94.6429 20.2841C93.9982 20.5245 93.3119 20.64 92.6222 20.624Z"/><path fill="#005A61" d="M103.13 20.6266C102.184 20.6586 101.248 20.4242 100.433 19.951C99.7145 19.5054 99.1465 18.8612 98.801 18.0998C98.4238 17.2634 98.2362 16.3569 98.251 15.4427C98.2348 14.5242 98.4224 13.6132 98.801 12.7727C99.147 12.011 99.7148 11.3663 100.433 10.9193C101.259 10.4776 102.186 10.2461 103.127 10.2461C104.068 10.2461 104.995 10.4776 105.821 10.9193C106.536 11.3679 107.102 12.0123 107.447 12.7727C107.825 13.6132 108.013 14.5242 107.997 15.4427C108.011 16.3569 107.824 17.2634 107.447 18.0998C107.102 18.86 106.537 19.5038 105.821 19.951C105.009 20.4253 104.075 20.6599 103.13 20.6266ZM103.13 19.4914C103.847 19.521 104.556 19.3271 105.153 18.9378C105.681 18.5708 106.087 18.0591 106.319 17.4671C106.574 16.8218 106.7 16.1346 106.692 15.4427C106.693 14.9116 106.62 14.3828 106.473 13.8715C106.343 13.401 106.12 12.9597 105.819 12.5718C105.524 12.1976 105.142 11.8972 104.706 11.6953C104.209 11.4752 103.667 11.3671 103.122 11.3789C102.407 11.3525 101.702 11.5486 101.107 11.939C100.576 12.3113 100.164 12.8245 99.9204 13.4183C99.6552 14.0612 99.5231 14.7493 99.532 15.4427C99.5244 16.1303 99.6533 16.8127 99.9117 17.4521C100.156 18.0821 100.599 18.6195 101.176 18.9862C101.753 19.3529 102.435 19.5299 103.122 19.4914H103.13Z"/><path fill="#005A61" d="M109.984 20.5091V10.3594H111.918L115.025 15.943L118.08 10.3594H119.97V20.5091H118.696V11.6783L115.278 17.852H114.691L111.248 11.6783V20.5091H109.984Z"/><path fill="#005A61" d="M122.52 20.5106V10.3609H126.109C126.783 10.344 127.453 10.4687 128.073 10.7264C128.602 10.9546 129.042 11.3446 129.326 11.838C129.636 12.4225 129.786 13.0758 129.762 13.7341C129.785 14.3979 129.61 15.0538 129.258 15.6217C128.924 16.1317 128.445 16.5339 127.879 16.7782C127.24 17.0466 126.551 17.1785 125.856 17.1651H123.805V20.5106H122.52ZM123.794 16.0215H125.786C126.473 16.0525 127.151 15.8584 127.713 15.4699C128.208 15.1023 128.455 14.5016 128.455 13.6679C128.455 12.9411 128.254 12.3952 127.853 12.0304C127.453 11.667 126.851 11.4853 126.05 11.4853H123.794V16.0215Z"/><path fill="#005A61" d="M131.754 20.5091V10.3594H133.028V19.374H138.715V20.5091H131.754Z"/><path fill="#005A61" d="M141.586 20.5091V16.704L137.918 10.3594H139.398L142.234 15.4407L145.049 10.3594H146.5L142.861 16.6891V20.5091H141.586Z"/><defs><linearGradient id="paint0_linear_1_1123" x1="17.499" x2="5.013" y1="5.486" y2="30.242" gradientUnits="userSpaceOnUse"><stop stop-color="#005A61"/><stop offset="1" stop-color="#005A61"/></linearGradient><linearGradient id="paint1_linear_1_1123" x1="26.51" x2="25.796" y1="31.898" y2="5.65" gradientUnits="userSpaceOnUse"><stop stop-color="#005A61"/><stop offset="1" stop-color="#8FCFB1"/></linearGradient><linearGradient id="paint2_linear_1_1123" x1="10.711" x2="34.379" y1="8.929" y2="8.929" gradientUnits="userSpaceOnUse"><stop stop-color="#39B9C5"/><stop offset="1" stop-color="#90D0B2"/></linearGradient><linearGradient id="paint3_linear_1_1123" x1="16.295" x2="28.96" y1="23.692" y2="10.212" gradientUnits="userSpaceOnUse"><stop stop-color="#12A3C5"/><stop offset="1" stop-color="#90D0B2"/></linearGradient><linearGradient id="paint4_linear_1_1123" x1="12.286" x2="22.08" y1="15.376" y2="22.126" gradientUnits="userSpaceOnUse"><stop stop-color="#12A3C5"/><stop offset="1" stop-color="#90D0B2"/></linearGradient></defs></svg>